{
	"asset":{
		"copyright":"Rusted Owl",
		"generator":"Khronos glTF Blender I/O v3.6.27",
		"version":"2.0"
	},
	"scene":0,
	"scenes":[
		{
			"name":"Scene",
			"nodes":[
				4
			]
		}
	],
	"nodes":[
		{
			"mesh":0,
			"name":"Top",
			"scale":[
				44.875823974609375,
				44.875823974609375,
				44.875823974609375
			],
			"translation":[
				0.004941809922456741,
				-0.079069122672081,
				1.06236148766925e-08
			]
		},
		{
			"children":[
				0
			],
			"name":"Bone",
			"scale":[
				0.9999999403953552,
				0.9999999403953552,
				0.9999999403953552
			],
			"translation":[
				-0.004941808991134167,
				0.07906895130872726,
				-1.062361398851408e-08
			]
		},
		{
			"mesh":1,
			"name":"Bottom",
			"rotation":[
				0.7071068286895752,
				0,
				-0.7071067094802856,
				0
			],
			"scale":[
				44.875823974609375,
				44.875823974609375,
				44.875823974609375
			],
			"translation":[
				3.0745095500606112e-06,
				0.06878666579723358,
				-0.002678120508790016
			]
		},
		{
			"children":[
				2
			],
			"name":"Bone.001",
			"rotation":[
				0.7071068286895752,
				0,
				-0.7071067094802856,
				0
			],
			"scale":[
				0.9999999403953552,
				0.9999999403953552,
				0.9999999403953552
			],
			"translation":[
				-0.002678120508790016,
				0.06878664344549179,
				3.074307414863142e-06
			]
		},
		{
			"children":[
				1,
				3
			],
			"name":"Armature",
			"scale":[
				0.022283710539340973,
				0.022283710539340973,
				0.022283710539340973
			]
		}
	],
	"animations":[
		{
			"channels":[
				{
					"sampler":0,
					"target":{
						"node":1,
						"path":"translation"
					}
				},
				{
					"sampler":1,
					"target":{
						"node":1,
						"path":"rotation"
					}
				},
				{
					"sampler":2,
					"target":{
						"node":1,
						"path":"scale"
					}
				},
				{
					"sampler":3,
					"target":{
						"node":3,
						"path":"translation"
					}
				},
				{
					"sampler":4,
					"target":{
						"node":3,
						"path":"rotation"
					}
				},
				{
					"sampler":5,
					"target":{
						"node":3,
						"path":"scale"
					}
				}
			],
			"name":"Open",
			"samplers":[
				{
					"input":8,
					"interpolation":"LINEAR",
					"output":9
				},
				{
					"input":8,
					"interpolation":"LINEAR",
					"output":10
				},
				{
					"input":8,
					"interpolation":"LINEAR",
					"output":11
				},
				{
					"input":8,
					"interpolation":"LINEAR",
					"output":12
				},
				{
					"input":8,
					"interpolation":"LINEAR",
					"output":13
				},
				{
					"input":8,
					"interpolation":"LINEAR",
					"output":14
				}
			]
		}
	],
	"materials":[
		{
			"alphaMode":"BLEND",
			"doubleSided":true,
			"name":"GoshaCapsuleTop",
			"pbrMetallicRoughness":{
				"baseColorFactor":[
					0.800000011920929,
					0.800000011920929,
					0.800000011920929,
					0.4640522599220276
				],
				"metallicFactor":0,
				"roughnessFactor":0.09477123618125916
			}
		},
		{
			"alphaMode":"BLEND",
			"doubleSided":true,
			"name":"GoshaCapsuleBottom",
			"pbrMetallicRoughness":{
				"baseColorFactor":[
					0.8000000715255737,
					0.005346572957932949,
					0.013790473341941833,
					0.800000011920929
				],
				"metallicFactor":0,
				"roughnessFactor":0.23856207728385925
			}
		}
	],
	"meshes":[
		{
			"name":"Cube.001",
			"primitives":[
				{
					"attributes":{
						"POSITION":0,
						"NORMAL":1,
						"TEXCOORD_0":2
					},
					"indices":3,
					"material":0
				}
			]
		},
		{
			"name":"Cube",
			"primitives":[
				{
					"attributes":{
						"POSITION":4,
						"NORMAL":5,
						"TEXCOORD_0":6
					},
					"indices":7,
					"material":1
				}
			]
		}
	],
	"skins":[
		{
			"inverseBindMatrices":15,
			"joints":[
				1,
				3
			],
			"name":"Armature"
		}
	],
	"accessors":[
		{
			"bufferView":0,
			"componentType":5126,
			"count":194,
			"max":[
				0.021896639838814735,
				0.02388080582022667,
				0.021896639838814735
			],
			"min":[
				-0.021896639838814735,
				0.003734888508915901,
				-0.021896639838814735
			],
			"type":"VEC3"
		},
		{
			"bufferView":1,
			"componentType":5126,
			"count":194,
			"type":"VEC3"
		},
		{
			"bufferView":2,
			"componentType":5126,
			"count":194,
			"type":"VEC2"
		},
		{
			"bufferView":3,
			"componentType":5123,
			"count":672,
			"type":"SCALAR"
		},
		{
			"bufferView":4,
			"componentType":5126,
			"count":201,
			"max":[
				0.02253500558435917,
				0.004769057035446167,
				0.02253500558435917
			],
			"min":[
				-0.02253500558435917,
				-0.022337455302476883,
				-0.02253500558435917
			],
			"type":"VEC3"
		},
		{
			"bufferView":5,
			"componentType":5126,
			"count":201,
			"type":"VEC3"
		},
		{
			"bufferView":6,
			"componentType":5126,
			"count":201,
			"type":"VEC2"
		},
		{
			"bufferView":7,
			"componentType":5123,
			"count":672,
			"type":"SCALAR"
		},
		{
			"bufferView":8,
			"componentType":5126,
			"count":75,
			"max":[
				3.125
			],
			"min":[
				0.041666666666666664
			],
			"type":"SCALAR"
		},
		{
			"bufferView":9,
			"componentType":5126,
			"count":75,
			"type":"VEC3"
		},
		{
			"bufferView":10,
			"componentType":5126,
			"count":75,
			"type":"VEC4"
		},
		{
			"bufferView":11,
			"componentType":5126,
			"count":75,
			"type":"VEC3"
		},
		{
			"bufferView":12,
			"componentType":5126,
			"count":75,
			"type":"VEC3"
		},
		{
			"bufferView":13,
			"componentType":5126,
			"count":75,
			"type":"VEC4"
		},
		{
			"bufferView":14,
			"componentType":5126,
			"count":75,
			"type":"VEC3"
		},
		{
			"bufferView":15,
			"componentType":5126,
			"count":2,
			"type":"MAT4"
		}
	],
	"bufferViews":[
		{
			"buffer":0,
			"byteLength":2328,
			"byteOffset":0,
			"target":34962
		},
		{
			"buffer":0,
			"byteLength":2328,
			"byteOffset":2328,
			"target":34962
		},
		{
			"buffer":0,
			"byteLength":1552,
			"byteOffset":4656,
			"target":34962
		},
		{
			"buffer":0,
			"byteLength":1344,
			"byteOffset":6208,
			"target":34963
		},
		{
			"buffer":0,
			"byteLength":2412,
			"byteOffset":7552,
			"target":34962
		},
		{
			"buffer":0,
			"byteLength":2412,
			"byteOffset":9964,
			"target":34962
		},
		{
			"buffer":0,
			"byteLength":1608,
			"byteOffset":12376,
			"target":34962
		},
		{
			"buffer":0,
			"byteLength":1344,
			"byteOffset":13984,
			"target":34963
		},
		{
			"buffer":0,
			"byteLength":300,
			"byteOffset":15328
		},
		{
			"buffer":0,
			"byteLength":900,
			"byteOffset":15628
		},
		{
			"buffer":0,
			"byteLength":1200,
			"byteOffset":16528
		},
		{
			"buffer":0,
			"byteLength":900,
			"byteOffset":17728
		},
		{
			"buffer":0,
			"byteLength":900,
			"byteOffset":18628
		},
		{
			"buffer":0,
			"byteLength":1200,
			"byteOffset":19528
		},
		{
			"buffer":0,
			"byteLength":900,
			"byteOffset":20728
		},
		{
			"buffer":0,
			"byteLength":128,
			"byteOffset":21628
		}
	],
	"buffers":[
		{
			"byteLength":21756,
			"uri":"data:application/octet-stream;base64,"
		}
	]
}
