{
	"asset":{
		"copyright":"Rusted Owl",
		"generator":"Khronos glTF Blender I/O v3.6.27",
		"version":"2.0"
	},
	"extensionsUsed":[
		"KHR_materials_specular",
		"KHR_materials_ior"
	],
	"scene":0,
	"scenes":[
		{
			"name":"Scene",
			"nodes":[
				1
			]
		}
	],
	"nodes":[
		{
			"mesh":0,
			"name":"Dial",
			"translation":[
				0.03592488169670105,
				0.046937983483076096,
				-0.00010673142969608307
			]
		},
		{
			"children":[
				0
			],
			"mesh":1,
			"name":"Body"
		}
	],
	"animations":[
		{
			"channels":[
				{
					"sampler":0,
					"target":{
						"node":1,
						"path":"translation"
					}
				},
				{
					"sampler":1,
					"target":{
						"node":1,
						"path":"rotation"
					}
				},
				{
					"sampler":2,
					"target":{
						"node":1,
						"path":"scale"
					}
				}
			],
			"name":"Dispense",
			"samplers":[
				{
					"input":24,
					"interpolation":"LINEAR",
					"output":25
				},
				{
					"input":26,
					"interpolation":"STEP",
					"output":27
				},
				{
					"input":24,
					"interpolation":"LINEAR",
					"output":28
				}
			]
		},
		{
			"channels":[
				{
					"sampler":0,
					"target":{
						"node":0,
						"path":"rotation"
					}
				}
			],
			"name":"TurnDial",
			"samplers":[
				{
					"input":29,
					"interpolation":"LINEAR",
					"output":30
				}
			]
		}
	],
	"materials":[
		{
			"doubleSided":true,
			"name":"TurnDial",
			"pbrMetallicRoughness":{
				"baseColorFactor":[
					0.800000011920929,
					0.800000011920929,
					0.800000011920929,
					1
				],
				"metallicFactor":0,
				"roughnessFactor":0.5
			}
		},
		{
			"doubleSided":true,
			"name":"GoshaMachineBody",
			"occlusionTexture":{
				"index":0
			},
			"pbrMetallicRoughness":{
				"baseColorTexture":{
					"index":1
				},
				"metallicFactor":0,
				"roughnessFactor":0.699999988079071
			}
		},
		{
			"alphaMode":"BLEND",
			"doubleSided":true,
			"name":"GoshaCapsuleBottom",
			"pbrMetallicRoughness":{
				"baseColorFactor":[
					0.8000000715255737,
					0.005346572957932949,
					0.013790473341941833,
					0.800000011920929
				],
				"metallicFactor":0,
				"roughnessFactor":0.23856207728385925
			}
		},
		{
			"extensions":{
				"KHR_materials_specular":{
					"specularColorFactor":[
						0,
						0,
						0
					]
				},
				"KHR_materials_ior":{
					"ior":1.4500000476837158
				}
			},
			"name":"GoshaFigurine",
			"pbrMetallicRoughness":{
				"baseColorFactor":[
					0,
					0,
					0,
					1
				],
				"metallicFactor":0
			}
		},
		{
			"alphaMode":"BLEND",
			"doubleSided":true,
			"name":"GoshaCapsuleTop",
			"pbrMetallicRoughness":{
				"baseColorFactor":[
					0.800000011920929,
					0.800000011920929,
					0.800000011920929,
					0.4640522599220276
				],
				"metallicFactor":0,
				"roughnessFactor":0.09477123618125916
			}
		},
		{
			"alphaMode":"BLEND",
			"doubleSided":true,
			"name":"GoshaMachineScreen",
			"pbrMetallicRoughness":{
				"baseColorFactor":[
					0.4064439833164215,
					0.4064439833164215,
					0.4064439833164215,
					0.271794855594635
				],
				"metallicFactor":0,
				"roughnessFactor":0.09210526943206787
			}
		}
	],
	"meshes":[
		{
			"name":"Dial",
			"primitives":[
				{
					"attributes":{
						"POSITION":0,
						"NORMAL":1,
						"TEXCOORD_0":2
					},
					"indices":3,
					"material":0
				}
			]
		},
		{
			"name":"Body",
			"primitives":[
				{
					"attributes":{
						"POSITION":4,
						"NORMAL":5,
						"TEXCOORD_0":6
					},
					"indices":7,
					"material":1
				},
				{
					"attributes":{
						"POSITION":8,
						"NORMAL":9,
						"TEXCOORD_0":10
					},
					"indices":11,
					"material":2
				},
				{
					"attributes":{
						"POSITION":12,
						"NORMAL":13,
						"TEXCOORD_0":14
					},
					"indices":15,
					"material":3
				},
				{
					"attributes":{
						"POSITION":16,
						"NORMAL":17,
						"TEXCOORD_0":18
					},
					"indices":19,
					"material":4
				},
				{
					"attributes":{
						"POSITION":20,
						"NORMAL":21,
						"TEXCOORD_0":22
					},
					"indices":23,
					"material":5
				}
			]
		}
	],
	"textures":[
		{
			"sampler":0,
			"source":0
		},
		{
			"sampler":0,
			"source":1
		}
	],
	"images":[
		{
			"bufferView":8,
			"mimeType":"image/png",
			"name":"AO_Bake"
		},
		{
			"bufferView":9,
			"mimeType":"image/png",
			"name":"Overlay"
		}
	],
	"accessors":[
		{
			"bufferView":0,
			"componentType":5126,
			"count":213,
			"max":[
				0.0036864764988422394,
				0.007471408694982529,
				0.007471407763659954
			],
			"min":[
				-0.003686472773551941,
				-0.007471408694982529,
				-0.007471407763659954
			],
			"type":"VEC3"
		},
		{
			"bufferView":1,
			"componentType":5126,
			"count":213,
			"type":"VEC3"
		},
		{
			"bufferView":2,
			"componentType":5126,
			"count":213,
			"type":"VEC2"
		},
		{
			"bufferView":3,
			"componentType":5123,
			"count":702,
			"type":"SCALAR"
		},
		{
			"bufferView":4,
			"componentType":5126,
			"count":5388,
			"max":[
				0.041663944721221924,
				0.12215809524059296,
				0.02868519350886345
			],
			"min":[
				-0.04197955131530762,
				0.0003148505638819188,
				-0.028898656368255615
			],
			"type":"VEC3"
		},
		{
			"bufferView":5,
			"componentType":5126,
			"count":5388,
			"type":"VEC3"
		},
		{
			"bufferView":6,
			"componentType":5126,
			"count":5388,
			"type":"VEC2"
		},
		{
			"bufferView":7,
			"componentType":5123,
			"count":13494,
			"type":"SCALAR"
		},
		{
			"bufferView":10,
			"componentType":5126,
			"count":2010,
			"max":[
				0.032040759921073914,
				0.10717695951461792,
				0.025283483788371086
			],
			"min":[
				-0.033713199198246,
				0.05606936663389206,
				-0.026844073086977005
			],
			"type":"VEC3"
		},
		{
			"bufferView":11,
			"componentType":5126,
			"count":2010,
			"type":"VEC3"
		},
		{
			"bufferView":12,
			"componentType":5126,
			"count":2010,
			"type":"VEC2"
		},
		{
			"bufferView":13,
			"componentType":5123,
			"count":6720,
			"type":"SCALAR"
		},
		{
			"bufferView":14,
			"componentType":5126,
			"count":1250,
			"max":[
				0.028645670041441917,
				0.10496963560581207,
				0.024428583681583405
			],
			"min":[
				-0.030574891716241837,
				0.05870034918189049,
				-0.023770276457071304
			],
			"type":"VEC3"
		},
		{
			"bufferView":15,
			"componentType":5126,
			"count":1250,
			"type":"VEC3"
		},
		{
			"bufferView":16,
			"componentType":5126,
			"count":1250,
			"type":"VEC2"
		},
		{
			"bufferView":17,
			"componentType":5123,
			"count":5760,
			"type":"SCALAR"
		},
		{
			"bufferView":18,
			"componentType":5126,
			"count":1940,
			"max":[
				0.03164082020521164,
				0.10329574346542358,
				0.02755347080528736
			],
			"min":[
				-0.03387394919991493,
				0.05854950100183487,
				-0.027075378224253654
			],
			"type":"VEC3"
		},
		{
			"bufferView":19,
			"componentType":5126,
			"count":1940,
			"type":"VEC3"
		},
		{
			"bufferView":20,
			"componentType":5126,
			"count":1940,
			"type":"VEC2"
		},
		{
			"bufferView":21,
			"componentType":5123,
			"count":6720,
			"type":"SCALAR"
		},
		{
			"bufferView":22,
			"componentType":5126,
			"count":128,
			"max":[
				0.03499136120080948,
				0.11493665724992752,
				0.02934892103075981
			],
			"min":[
				-0.02077813632786274,
				0.06633307784795761,
				-0.029562383890151978
			],
			"type":"VEC3"
		},
		{
			"bufferView":23,
			"componentType":5126,
			"count":128,
			"type":"VEC3"
		},
		{
			"bufferView":24,
			"componentType":5126,
			"count":128,
			"type":"VEC2"
		},
		{
			"bufferView":25,
			"componentType":5123,
			"count":324,
			"type":"SCALAR"
		},
		{
			"bufferView":26,
			"componentType":5126,
			"count":41,
			"max":[
				1.6666666666666667
			],
			"min":[
				0
			],
			"type":"SCALAR"
		},
		{
			"bufferView":27,
			"componentType":5126,
			"count":41,
			"type":"VEC3"
		},
		{
			"bufferView":28,
			"componentType":5126,
			"count":2,
			"max":[
				1.6666666666666667
			],
			"min":[
				0
			],
			"type":"SCALAR"
		},
		{
			"bufferView":29,
			"componentType":5126,
			"count":2,
			"type":"VEC4"
		},
		{
			"bufferView":30,
			"componentType":5126,
			"count":41,
			"type":"VEC3"
		},
		{
			"bufferView":31,
			"componentType":5126,
			"count":16,
			"max":[
				0.625
			],
			"min":[
				0
			],
			"type":"SCALAR"
		},
		{
			"bufferView":32,
			"componentType":5126,
			"count":16,
			"type":"VEC4"
		}
	],
	"bufferViews":[
		{
			"buffer":0,
			"byteLength":2556,
			"byteOffset":0,
			"target":34962
		},
		{
			"buffer":0,
			"byteLength":2556,
			"byteOffset":2556,
			"target":34962
		},
		{
			"buffer":0,
			"byteLength":1704,
			"byteOffset":5112,
			"target":34962
		},
		{
			"buffer":0,
			"byteLength":1404,
			"byteOffset":6816,
			"target":34963
		},
		{
			"buffer":0,
			"byteLength":64656,
			"byteOffset":8220,
			"target":34962
		},
		{
			"buffer":0,
			"byteLength":64656,
			"byteOffset":72876,
			"target":34962
		},
		{
			"buffer":0,
			"byteLength":43104,
			"byteOffset":137532,
			"target":34962
		},
		{
			"buffer":0,
			"byteLength":26988,
			"byteOffset":180636,
			"target":34963
		},
		{
			"buffer":0,
			"byteLength":384264,
			"byteOffset":207624
		},
		{
			"buffer":0,
			"byteLength":45560,
			"byteOffset":591888
		},
		{
			"buffer":0,
			"byteLength":24120,
			"byteOffset":637448,
			"target":34962
		},
		{
			"buffer":0,
			"byteLength":24120,
			"byteOffset":661568,
			"target":34962
		},
		{
			"buffer":0,
			"byteLength":16080,
			"byteOffset":685688,
			"target":34962
		},
		{
			"buffer":0,
			"byteLength":13440,
			"byteOffset":701768,
			"target":34963
		},
		{
			"buffer":0,
			"byteLength":15000,
			"byteOffset":715208,
			"target":34962
		},
		{
			"buffer":0,
			"byteLength":15000,
			"byteOffset":730208,
			"target":34962
		},
		{
			"buffer":0,
			"byteLength":10000,
			"byteOffset":745208,
			"target":34962
		},
		{
			"buffer":0,
			"byteLength":11520,
			"byteOffset":755208,
			"target":34963
		},
		{
			"buffer":0,
			"byteLength":23280,
			"byteOffset":766728,
			"target":34962
		},
		{
			"buffer":0,
			"byteLength":23280,
			"byteOffset":790008,
			"target":34962
		},
		{
			"buffer":0,
			"byteLength":15520,
			"byteOffset":813288,
			"target":34962
		},
		{
			"buffer":0,
			"byteLength":13440,
			"byteOffset":828808,
			"target":34963
		},
		{
			"buffer":0,
			"byteLength":1536,
			"byteOffset":842248,
			"target":34962
		},
		{
			"buffer":0,
			"byteLength":1536,
			"byteOffset":843784,
			"target":34962
		},
		{
			"buffer":0,
			"byteLength":1024,
			"byteOffset":845320,
			"target":34962
		},
		{
			"buffer":0,
			"byteLength":648,
			"byteOffset":846344,
			"target":34963
		},
		{
			"buffer":0,
			"byteLength":164,
			"byteOffset":846992
		},
		{
			"buffer":0,
			"byteLength":492,
			"byteOffset":847156
		},
		{
			"buffer":0,
			"byteLength":8,
			"byteOffset":847648
		},
		{
			"buffer":0,
			"byteLength":32,
			"byteOffset":847656
		},
		{
			"buffer":0,
			"byteLength":492,
			"byteOffset":847688
		},
		{
			"buffer":0,
			"byteLength":64,
			"byteOffset":848180
		},
		{
			"buffer":0,
			"byteLength":256,
			"byteOffset":848244
		}
	],
	"samplers":[
		{
			"magFilter":9729,
			"minFilter":9987
		}
	],
	"buffers":[
		{
			"byteLength":848500,
			"uri":"data:application/octet-stream;base64,"
		}
	]
}
